<svg width="142" height="142" viewBox="0 0 142 142" fill="none" xmlns="http://www.w3.org/2000/svg">
<rect x="71" width="100.409" height="100.409" rx="27" transform="rotate(45 71 0)" fill="#121239"/>
<path d="M50.8 48.1164C50.9881 47.9251 51.245 47.8174 51.5132 47.8174H99.6359C100.536 47.8174 100.978 48.9145 100.329 49.5385L91.0712 58.433C90.8849 58.6119 90.6367 58.7118 90.3784 58.7118H42.77C41.8832 58.7118 41.4352 57.6432 42.0569 57.0108L50.8 48.1164Z" fill="white"/>
<path d="M41.0836 67.7144C40.4083 67.0992 40.8435 65.9751 41.7571 65.9751H89.7732C90.0223 65.9751 90.2625 66.0681 90.4466 66.2358L100.211 75.1303C100.886 75.7455 100.451 76.8696 99.5374 76.8696H51.5212C51.2721 76.8696 51.0319 76.7766 50.8478 76.6088L41.0836 67.7144Z" fill="white"/>
<path d="M50.8 83.2209C50.9881 83.0296 51.245 82.9219 51.5132 82.9219H99.6359C100.536 82.9219 100.978 84.019 100.329 84.643L91.0712 93.5374C90.8849 93.7164 90.6367 93.8163 90.3784 93.8163H42.77C41.8832 93.8163 41.4352 92.7477 42.0569 92.1153L50.8 83.2209Z" fill="white"/>
</svg>
