<svg width="118" height="118" viewBox="0 0 118 118" fill="none" xmlns="http://www.w3.org/2000/svg">
<rect x="58.6537" y="0.321289" width="82.9488" height="82.9488" rx="27" transform="rotate(45 58.6537 0.321289)" fill="#87A7F9"/>
<path d="M41.9153 40.1227C42.1033 39.9315 42.3603 39.8237 42.6285 39.8237H81.8781C82.7787 39.8237 83.2204 40.9209 82.5709 41.5448L75.2852 48.5448C75.099 48.7238 74.8507 48.8237 74.5924 48.8237H35.7475C34.8608 48.8237 34.4127 47.7551 35.0344 47.1227L41.9153 40.1227Z" fill="white"/>
<path d="M34.2716 56.563C33.5963 55.9478 34.0315 54.8237 34.945 54.8237H74.0951C74.3442 54.8237 74.5844 54.9167 74.7685 55.0845L82.453 62.0845C83.1283 62.6997 82.6931 63.8237 81.7796 63.8237H42.6295C42.3804 63.8237 42.1402 63.7308 41.9561 63.563L34.2716 56.563Z" fill="white"/>
<path d="M41.9153 69.1227C42.1033 68.9315 42.3603 68.8237 42.6285 68.8237H81.8781C82.7787 68.8237 83.2204 69.9209 82.5709 70.5448L75.2852 77.5448C75.099 77.7238 74.8507 77.8237 74.5924 77.8237H35.7475C34.8608 77.8237 34.4127 76.7551 35.0344 76.1227L41.9153 69.1227Z" fill="white"/>
</svg>
