<svg width="41" height="35" viewBox="0 0 41 35" fill="none" xmlns="http://www.w3.org/2000/svg">
<path d="M39.7688 1.70728H1.23123C0.554054 1.70728 0 2.54103 0 3.56006C0 4.5791 0.554054 5.41285 1.23123 5.41285H39.7688C40.4459 5.41285 41 4.5791 41 3.56006C41 2.54103 40.4459 1.70728 39.7688 1.70728Z" fill="#414BFF"/>
<path d="M28.3183 12.0344H1.23123C0.554054 12.0344 0 12.5074 0 13.0855C0 13.6636 0.554054 14.1365 1.23123 14.1365H28.3183C28.9955 14.1365 29.5495 13.6636 29.5495 13.0855C29.5495 12.5074 28.9955 12.0344 28.3183 12.0344Z" fill="#414BFF"/>
<path d="M35.8889 20.8633H1.11111C0.5 20.8633 0 21.3363 0 21.9143C0 22.4924 0.5 22.9654 1.11111 22.9654H35.8889C36.5 22.9654 37 22.4924 37 21.9143C37 21.3363 36.5 20.8633 35.8889 20.8633Z" fill="#414BFF"/>
<path d="M18.5916 29.5872H1.23123C0.554054 29.5872 0 30.0601 0 30.6382C0 31.2163 0.554054 31.6893 1.23123 31.6893H18.5916C19.2688 31.6893 19.8228 31.2163 19.8228 30.6382C19.8228 30.0601 19.2688 29.5872 18.5916 29.5872Z" fill="#414BFF"/>
</svg>
