<svg width="41" height="42" viewBox="0 0 41 42" fill="none" xmlns="http://www.w3.org/2000/svg">
<path fill-rule="evenodd" clip-rule="evenodd" d="M22.6579 0C21.9235 0 21.2013 0.0546667 20.4892 0.151052C19.7469 0.0517895 19.0413 0 18.3421 0C13.0466 0 8.2712 2.56862 4.92 6.66358C4.89208 6.68853 4.87054 6.7174 4.84849 6.74695L4.83441 6.76572C3.76625 8.08854 2.84842 9.56958 2.10611 11.1722C2.0874 11.2074 2.07086 11.2419 2.05719 11.2801C1.54577 12.4 1.11923 13.5768 0.791228 14.8024C0.75886 14.8715 0.744474 14.9471 0.735122 15.0254C0.259667 16.8783 0 18.8348 0 20.8597C0 24.0275 0.627228 27.0305 1.74286 29.7222L1.74452 29.7269C1.75397 29.7539 1.76303 29.7798 1.77595 29.8056C2.4449 31.4009 3.28647 32.8841 4.27407 34.2257C4.28111 34.2353 4.28782 34.2452 4.2945 34.2549C4.3117 34.2802 4.32876 34.3051 4.35104 34.3264C5.35086 35.6679 6.49671 36.8626 7.76049 37.8811C7.79557 37.9197 7.83737 37.9486 7.88077 37.9787L7.88425 37.9811C10.8528 40.3346 14.4572 41.7193 18.3421 41.7193C19.0413 41.7193 19.7469 41.6675 20.4892 41.5683C21.2013 41.6647 21.9235 41.7193 22.6579 41.7193C32.772 41.7193 41 32.3619 41 20.8597C41 9.35736 32.772 0 22.6579 0ZM15.0639 1.88013C14.8259 2.00385 14.5906 2.13333 14.3583 2.26783C14.3206 2.28966 14.2829 2.31125 14.2453 2.33283C14.1526 2.3859 14.0602 2.43888 13.9692 2.49513C13.7699 2.61741 13.575 2.74688 13.3808 2.87708H11.9961C13.0477 2.38507 14.1454 1.99738 15.2898 1.75641C15.2475 1.77737 15.2064 1.80073 15.1654 1.82408C15.1318 1.8432 15.0982 1.86232 15.0639 1.88013ZM5.23127 33.0893H7.81068C7.6769 32.8792 7.54382 32.6692 7.4172 32.4542C7.37783 32.3874 7.34025 32.3198 7.30271 32.2522L7.30269 32.2522L7.30262 32.2521C7.28191 32.2148 7.26122 32.1776 7.24024 32.1405C7.08129 31.8607 6.92881 31.5766 6.78135 31.2874L6.76198 31.2497L6.76197 31.2497L6.76196 31.2497L6.76196 31.2497L6.76195 31.2496L6.76194 31.2496L6.76193 31.2496L6.76192 31.2496L6.76191 31.2496L6.7619 31.2496L6.7619 31.2495C6.71374 31.1558 6.66579 31.0625 6.61951 30.9681C6.49795 30.7192 6.38214 30.4667 6.26921 30.2121H3.54451C4.03363 31.2299 4.59684 32.193 5.23127 33.0893ZM3.21194 12.227H5.96469C5.83882 12.5413 5.71942 12.8592 5.60649 13.1815L5.57298 13.2774L5.57296 13.2775L5.57294 13.2775L5.57291 13.2776L5.57289 13.2777L5.57286 13.2777L5.57284 13.2778L5.57281 13.2779C5.5529 13.3347 5.533 13.3914 5.5137 13.4484C5.41012 13.7577 5.31373 14.0699 5.22238 14.3849H2.4128C2.64154 13.6433 2.90912 12.924 3.21194 12.227ZM1.49564 19.4201C1.46543 19.8963 1.43953 20.374 1.43953 20.8587C1.43953 21.0096 1.44733 21.1582 1.45512 21.3068C1.45986 21.397 1.46459 21.4873 1.46758 21.5781H4.33255L4.3294 21.475C4.32306 21.27 4.31673 21.0652 4.31673 20.8587C4.31673 20.3861 4.33542 19.9194 4.36204 19.4547C4.3624 19.4489 4.36258 19.4432 4.36276 19.4375L4.36302 19.4297L4.36348 19.4201H1.49564ZM4.41264 23.019C4.43997 23.3218 4.47522 23.6225 4.51406 23.9217C4.51553 23.9328 4.51663 23.944 4.51773 23.9553L4.51774 23.9553L4.51774 23.9554L4.51994 23.9769L4.52125 23.9879C4.57448 24.3878 4.63922 24.7842 4.71186 25.1769H1.87495C1.73469 24.4705 1.62392 23.752 1.5527 23.019H4.41264ZM4.82511 15.9918C4.83598 15.9364 4.8469 15.8808 4.85901 15.8258H2.0185C1.85378 16.5293 1.73366 17.2515 1.63871 17.9837H4.49361C4.49712 17.9566 4.50007 17.9294 4.50301 17.9023L4.50302 17.9022C4.50671 17.8682 4.51039 17.8343 4.51518 17.8003C4.51658 17.7895 4.51764 17.7786 4.51869 17.7679L4.51869 17.7678L4.5187 17.7678L4.5187 17.7678L4.5187 17.7678L4.5187 17.7678C4.51981 17.7564 4.52091 17.7452 4.52238 17.7341C4.58352 17.2724 4.6612 16.817 4.74896 16.366C4.76109 16.3044 4.77383 16.2431 4.78658 16.1818L4.78659 16.1817L4.80722 16.0819C4.8133 16.052 4.8192 16.022 4.82511 15.9918ZM5.03328 26.6133C5.0422 26.6484 5.0509 26.6837 5.0596 26.7191C5.07262 26.772 5.08565 26.825 5.09945 26.8772C5.10377 26.893 5.10772 26.9092 5.11168 26.9254L5.11169 26.9255L5.11171 26.9255L5.11172 26.9256C5.11566 26.9417 5.11961 26.9578 5.12391 26.9736C5.24259 27.4116 5.37566 27.8425 5.51808 28.2683C5.53744 28.3259 5.55738 28.3826 5.57735 28.4394L5.57737 28.4395L5.57739 28.4395L5.57741 28.4396L5.57743 28.4396L5.57745 28.4397L5.61087 28.5352C5.63748 28.6143 5.6641 28.6935 5.69215 28.7711H2.9207C2.64808 28.0727 2.41359 27.352 2.21362 26.6133H5.03328ZM7.3032 9.47182C7.34137 9.40325 7.37958 9.33462 7.419 9.26752C7.61536 8.93516 7.81964 8.6101 8.03186 8.29143C8.10081 8.18826 8.17161 8.08698 8.2424 7.98571L8.29365 7.91234H5.77395C5.07839 8.80284 4.45117 9.76308 3.90666 10.7895H6.6033C6.60704 10.7816 6.61107 10.7737 6.61501 10.766L6.62129 10.7536C6.65626 10.6817 6.6925 10.6111 6.72875 10.5406C6.74693 10.5052 6.76511 10.4698 6.78313 10.4342C6.92987 10.1458 7.08309 9.86091 7.24204 9.58111C7.26254 9.54486 7.28286 9.50835 7.3032 9.47182ZM9.51927 4.31407H11.5059C11.3276 4.47016 11.1492 4.62697 10.9758 4.79024C10.8404 4.91825 10.7088 5.05066 10.5768 5.18336L10.55 5.21032C10.4076 5.35345 10.2666 5.49876 10.1285 5.64621L10.0988 5.67786L10.0988 5.67788L10.0987 5.67791L10.0987 5.67793C9.97559 5.80898 9.85268 5.93979 9.73288 6.07491C9.64313 6.17589 9.55644 6.27992 9.46975 6.38394L9.4697 6.38401L9.39627 6.47196H7.02112C7.79369 5.66851 8.62731 4.94417 9.51927 4.31407ZM8.81524 34.5262H6.34662C7.02708 35.3152 7.76579 36.0374 8.5563 36.684H10.7199C10.6881 36.653 10.6574 36.6205 10.6267 36.588C10.6011 36.5609 10.5756 36.5339 10.5495 36.5078C10.4063 36.3647 10.2653 36.2193 10.1265 36.0712L10.076 36.0174L10.0758 36.0172L10.0758 36.0171C9.95952 35.8935 9.8433 35.77 9.73091 35.6425C9.50145 35.3828 9.27777 35.1167 9.06055 34.8434C8.98834 34.7531 8.91827 34.6612 8.84803 34.5691L8.8479 34.569L8.81524 34.5262ZM15.2874 39.965C13.638 39.6175 12.0793 38.9803 10.6335 38.125H12.3735C12.4319 38.1702 12.4915 38.2137 12.551 38.257C12.5852 38.282 12.6194 38.3069 12.6533 38.3321L12.6903 38.3597C12.8269 38.4613 12.9637 38.5632 13.1028 38.6601C13.3855 38.8572 13.674 39.0464 13.9668 39.2263C14.0594 39.283 14.1536 39.3371 14.2479 39.3913C14.2839 39.412 14.3199 39.4327 14.3559 39.4536C14.5882 39.588 14.8234 39.7175 15.0615 39.8413C15.0978 39.8599 15.1332 39.88 15.1684 39.9001C15.2078 39.9225 15.2471 39.9448 15.2874 39.965ZM20.9639 40.1827C21.5206 40.2467 22.0853 40.2805 22.6571 40.2805C31.9778 40.2805 39.5607 31.5684 39.5607 20.8595C39.5607 10.1505 31.9778 1.4384 22.6571 1.4384C22.0853 1.4384 21.5206 1.47221 20.9632 1.5355L20.6848 1.57434C20.6467 1.57938 20.6079 1.58514 20.5697 1.59089C20.3208 1.62614 20.0741 1.66713 19.8296 1.71461L19.7684 1.72756C19.5303 1.77503 19.2944 1.82682 19.0606 1.88508C19.0449 1.88894 19.0291 1.89324 19.0134 1.89751C18.994 1.90279 18.9747 1.90804 18.9556 1.91242C18.7377 1.9678 18.5204 2.02751 18.3061 2.09296C18.2674 2.10473 18.2292 2.11749 18.1911 2.13022C18.164 2.13927 18.1369 2.14831 18.1097 2.15698C17.9263 2.21596 17.7436 2.27494 17.5631 2.3404C17.4423 2.3842 17.323 2.4319 17.204 2.47948C17.1784 2.48972 17.1528 2.49996 17.1272 2.51015C17.0941 2.52317 17.061 2.53594 17.0279 2.54872C16.9622 2.57407 16.8966 2.59942 16.8315 2.62668C12.9638 4.2638 9.75653 7.48049 7.80504 11.5935C7.79547 11.6133 7.78653 11.6336 7.77754 11.654C7.76962 11.6719 7.76168 11.69 7.75324 11.7078C7.64894 11.9315 7.54757 12.1574 7.45043 12.3861C7.42452 12.447 7.3999 12.5086 7.37529 12.5701C7.36298 12.6009 7.35067 12.6316 7.3382 12.6623C7.26554 12.8407 7.19434 13.0198 7.12606 13.2011C7.08965 13.2978 7.0552 13.3955 7.02069 13.4934C7.01362 13.5134 7.00654 13.5335 6.99944 13.5536C6.94261 13.7139 6.8865 13.8743 6.83328 14.0362C6.79012 14.1685 6.74912 14.3016 6.70812 14.4354C6.66136 14.5872 6.61605 14.7397 6.57289 14.8929C6.53333 15.0338 6.4952 15.1755 6.45852 15.318C6.41968 15.4683 6.38228 15.6201 6.34631 15.7719C6.31178 15.9172 6.27869 16.0624 6.24705 16.2092C6.21468 16.3624 6.18375 16.5163 6.15426 16.671C6.12549 16.8185 6.09743 16.9659 6.07226 17.1148C6.04493 17.2738 6.02119 17.4335 5.99745 17.5938C5.99392 17.6176 5.99037 17.6413 5.98683 17.6651C5.96868 17.7867 5.95052 17.9083 5.93487 18.0305C5.91329 18.2038 5.89531 18.3779 5.87733 18.552C5.87369 18.5863 5.86996 18.6207 5.86623 18.655C5.85521 18.7564 5.84421 18.8577 5.83561 18.9598C5.81844 19.1586 5.80696 19.3596 5.79552 19.56L5.79533 19.5633C5.79275 19.6082 5.78973 19.6531 5.7867 19.698C5.7821 19.7661 5.7775 19.8343 5.77447 19.9028C5.76152 20.22 5.75361 20.5386 5.75361 20.8595C5.75361 21.1803 5.76152 21.4989 5.77447 21.8154C5.77748 21.8833 5.78203 21.9508 5.78659 22.0183C5.78965 22.0637 5.79272 22.1092 5.79533 22.1549C5.80683 22.357 5.81835 22.5584 5.83561 22.7584C5.84421 22.8606 5.85522 22.9619 5.86624 23.0634C5.86997 23.0976 5.87369 23.1319 5.87733 23.1663C5.87972 23.1894 5.8821 23.2126 5.88449 23.2358C5.9 23.3868 5.91554 23.5381 5.93487 23.6877C5.95034 23.8091 5.96827 23.929 5.98621 24.049C5.98997 24.0741 5.99372 24.0992 5.99745 24.1243C6.02119 24.2848 6.04493 24.4445 6.07226 24.6034C6.09815 24.7523 6.1262 24.8998 6.15426 25.0472C6.18375 25.2019 6.21396 25.3558 6.24705 25.509C6.27869 25.6557 6.31178 25.801 6.34631 25.9464C6.38228 26.0981 6.41968 26.2499 6.45852 26.4002C6.4952 26.5419 6.53333 26.6843 6.57361 26.8246C6.61677 26.9778 6.66208 27.1303 6.70884 27.2821L6.71792 27.3115C6.7559 27.4349 6.79402 27.5587 6.834 27.6813C6.8865 27.8431 6.94261 28.0035 6.99944 28.1632C7.00806 28.1876 7.01664 28.2119 7.02523 28.2363C7.05823 28.3301 7.09125 28.4239 7.12606 28.5164C7.19365 28.6977 7.26554 28.8767 7.3382 29.0551C7.35068 29.0858 7.36299 29.1166 7.3753 29.1474C7.39991 29.2089 7.42452 29.2705 7.45043 29.3313C7.54757 29.5601 7.64894 29.7859 7.75324 30.0097C7.76056 30.0255 7.76774 30.0417 7.77494 30.0579C7.78477 30.0801 7.79465 30.1024 7.80504 30.124C9.75653 34.237 12.9638 37.4544 16.8315 39.0908C16.8959 39.118 16.9615 39.1433 17.0272 39.1685C17.0606 39.1814 17.0939 39.1942 17.1272 39.2073C17.1537 39.2179 17.1803 39.2285 17.2069 39.2391C17.3249 39.2863 17.4433 39.3336 17.5631 39.3771C17.7436 39.4426 17.9263 39.5022 18.1097 39.5605C18.1378 39.5695 18.166 39.5788 18.1941 39.5882C18.2315 39.6006 18.2688 39.613 18.3061 39.6245C18.5204 39.69 18.7377 39.749 18.9556 39.805C18.9908 39.8144 19.0261 39.8245 19.0613 39.8331C19.2951 39.8914 19.531 39.9439 19.7692 39.9906C19.7893 39.9949 19.8094 39.9993 19.8303 40.0036C20.0748 40.051 20.3215 40.0921 20.5705 40.1273C20.6086 40.1323 20.6467 40.1388 20.6855 40.1439L20.9639 40.1827Z" fill="white"/>
<path d="M9.83118 20.8594C9.83118 20.407 9.84916 19.9524 9.88441 19.5078C9.91533 19.1122 9.62042 18.7655 9.22409 18.7339C8.82632 18.7051 8.48177 18.9986 8.45012 19.3942C8.412 19.8754 8.39258 20.3688 8.39258 20.8594V20.8745C8.39258 21.2716 8.71482 21.5859 9.11187 21.5859C9.50893 21.5859 9.83118 21.2565 9.83118 20.8594Z" fill="white"/>
<path d="M34.9843 16.7524C35.0663 17.079 35.3591 17.2962 35.6813 17.2962C35.7396 17.2962 35.7985 17.289 35.8575 17.2746C36.2424 17.1775 36.4761 16.7869 36.3797 16.4014C36.2589 15.9209 36.1172 15.4418 35.9575 14.9772C35.8288 14.6017 35.4202 14.3996 35.044 14.5298C34.6685 14.6585 34.4678 15.0678 34.5966 15.4433C34.7426 15.8698 34.8728 16.3108 34.9843 16.7524Z" fill="white"/>
<path d="M32.0262 30.9433C31.7385 31.2972 31.4343 31.636 31.1221 31.9518C30.8423 32.2337 30.8444 32.6891 31.1264 32.9689C31.2667 33.1077 31.4501 33.1775 31.6328 33.1775C31.8176 33.1775 32.0032 33.1062 32.1435 32.9646C32.4895 32.6157 32.8254 32.2409 33.1426 31.8511C33.3936 31.5425 33.3462 31.0893 33.0383 30.839C32.7304 30.588 32.2773 30.6355 32.0262 30.9433Z" fill="white"/>
<path d="M10.3262 24.9368C10.2306 24.5513 9.83854 24.3154 9.45443 24.4125C9.06889 24.5081 8.83439 24.8987 8.93006 25.2843C9.04946 25.764 9.19045 26.2438 9.34941 26.7099C9.45155 27.0091 9.73064 27.1976 10.0299 27.1976C10.1068 27.1976 10.1852 27.1846 10.2622 27.1588C10.6377 27.0307 10.8391 26.6222 10.711 26.246C10.5657 25.8187 10.4363 25.3778 10.3262 24.9368Z" fill="white"/>
<path d="M29.7476 6.79396C29.3276 6.51991 28.8888 6.26744 28.4443 6.04374C28.0889 5.86391 27.6574 6.00849 27.4783 6.36167C27.2991 6.71628 27.4416 7.1493 27.7962 7.32769C28.194 7.52837 28.586 7.75423 28.9622 7.99951C29.083 8.07863 29.2197 8.11603 29.3542 8.11603C29.5894 8.11603 29.8196 8.00095 29.9577 7.78948C30.1742 7.45716 30.0807 7.0112 29.7476 6.79396Z" fill="white"/>
<path d="M27.8805 34.3434C27.4805 34.5484 27.0677 34.7318 26.6534 34.8879C26.2815 35.0275 26.0937 35.4425 26.234 35.8144C26.3426 36.1028 26.6159 36.2805 26.9073 36.2805C26.9914 36.2805 27.077 36.2654 27.1612 36.2337C27.6266 36.0582 28.0898 35.8532 28.5379 35.623C28.8911 35.4418 29.0314 35.008 28.8494 34.6549C28.6674 34.3017 28.2337 34.1614 27.8805 34.3434Z" fill="white"/>
<path d="M33.9744 10.992C33.6946 10.5784 33.3939 10.1764 33.0803 9.79585C32.8278 9.48943 32.3739 9.44483 32.0675 9.69802C31.7611 9.9505 31.7172 10.4037 31.9697 10.7108C32.2545 11.0568 32.5279 11.4229 32.7825 11.7984C32.9213 12.0041 33.1479 12.1141 33.3788 12.1141C33.5176 12.1141 33.6579 12.0739 33.7816 11.9904C34.1111 11.7674 34.1974 11.3208 33.9744 10.992Z" fill="white"/>
<path d="M36.2085 20.1172C35.8115 20.1172 35.4892 20.4625 35.4892 20.8595C35.4892 21.3004 35.472 21.7457 35.4382 22.1816C35.4079 22.5779 35.7036 22.9239 36.0999 22.9541C36.1186 22.9555 36.1373 22.9563 36.156 22.9563C36.5279 22.9563 36.8437 22.67 36.8724 22.2923C36.9091 21.8191 36.9278 21.3371 36.9278 20.8588V20.812C36.9278 20.4157 36.6063 20.1172 36.2085 20.1172Z" fill="white"/>
<path d="M35.5299 25.7364C35.153 25.6098 34.7459 25.8127 34.6186 26.1888C34.4733 26.6197 34.3085 27.0477 34.1287 27.4613C33.9705 27.8252 34.1366 28.2496 34.5013 28.4079C34.5948 28.4489 34.6926 28.4676 34.7883 28.4676C35.066 28.4676 35.3299 28.3057 35.4479 28.0353C35.6443 27.5843 35.8241 27.1167 35.9823 26.647C36.1097 26.2708 35.9068 25.863 35.5299 25.7364Z" fill="white"/>
<path d="M24.1316 4.74429C23.6439 4.68746 23.1483 4.65869 22.6577 4.65869H22.6275C22.2305 4.65869 21.9233 4.98094 21.9233 5.37799C21.9233 5.77504 22.2607 6.09729 22.6577 6.09729C23.0929 6.09729 23.5331 6.12246 23.9661 6.17282C23.9942 6.17641 24.0223 6.17785 24.0503 6.17785C24.41 6.17785 24.7214 5.90812 24.7638 5.54127C24.8092 5.14638 24.5265 4.7896 24.1316 4.74429Z" fill="white"/>
<path d="M12.5149 29.8956C12.2926 29.5655 11.8452 29.4791 11.5165 29.7014C11.1871 29.9237 11.1 30.3704 11.3223 30.6998C11.6014 31.1134 11.9013 31.5162 12.2135 31.8974C12.3559 32.0708 12.5624 32.1607 12.7703 32.1607C12.9307 32.1607 13.0925 32.1075 13.2263 31.9974C13.5334 31.7449 13.578 31.2925 13.3263 30.9846C13.0421 30.6394 12.7688 30.2725 12.5149 29.8956Z" fill="white"/>
<path d="M10.8256 13.2828C10.4609 13.1245 10.0379 13.2892 9.87823 13.6539C9.68043 14.1064 9.49988 14.5732 9.34092 15.0407C9.2136 15.4169 9.41501 15.8255 9.7912 15.9535C9.86745 15.9794 9.94585 15.9916 10.0221 15.9916C10.322 15.9916 10.6018 15.8025 10.7033 15.5032C10.8486 15.0738 11.0147 14.6458 11.196 14.2301C11.3564 13.8661 11.1902 13.4417 10.8256 13.2828Z" fill="white"/>
<path d="M22.6614 35.6233C22.214 35.6233 21.7645 35.5967 21.325 35.5442C20.9329 35.5025 20.5726 35.7787 20.5251 36.1736C20.4783 36.5678 20.7596 36.926 21.1545 36.9735C21.6508 37.0324 22.1586 37.0626 22.6621 37.0626H22.724C23.121 37.0626 23.4124 36.7404 23.4124 36.3433C23.4124 35.9463 23.0585 35.6233 22.6614 35.6233Z" fill="white"/>
<path d="M13.1996 8.7311C12.8536 9.07996 12.5163 9.45327 12.1991 9.84242C11.9473 10.1503 11.9934 10.6034 12.3012 10.8545C12.435 10.9638 12.5961 11.017 12.7558 11.017C12.9644 11.017 13.1708 10.9271 13.3133 10.753C13.6017 10.3999 13.9067 10.0611 14.2203 9.74603C14.5001 9.46406 14.4987 9.00875 14.2174 8.72822C13.9355 8.44842 13.4809 8.45057 13.1996 8.7311Z" fill="white"/>
<path d="M18.1852 5.46935C17.7191 5.64414 17.2551 5.84842 16.807 6.07716C16.4531 6.25698 16.3121 6.69072 16.4927 7.04461C16.6193 7.29421 16.8718 7.43735 17.1343 7.43735C17.2444 7.43735 17.3558 7.41218 17.4601 7.35895C17.8601 7.15539 18.2737 6.97268 18.6887 6.81731C19.0606 6.67777 19.2498 6.26346 19.1102 5.89158C18.9721 5.51826 18.5564 5.32981 18.1852 5.46935Z" fill="white"/>
<path d="M17.493 34.3764C17.0974 34.1757 16.7054 33.9484 16.3285 33.7017C15.9954 33.4844 15.5509 33.578 15.3322 33.9096C15.115 34.2419 15.2078 34.6878 15.5401 34.9051C15.9609 35.1806 16.3989 35.4345 16.8413 35.6589C16.9456 35.7121 17.0571 35.7366 17.1664 35.7366C17.429 35.7366 17.6815 35.5927 17.8088 35.3431C17.9886 34.9892 17.8469 34.5562 17.493 34.3764Z" fill="white"/>
</svg>
