<svg width="42" height="42" viewBox="0 0 42 42" fill="none" xmlns="http://www.w3.org/2000/svg">
<path d="M20.9918 3.73909L21.4497 2.94511L16.34 0L5.63052 6.18309V11.9411L0 15.192V27.5582L5.63052 30.8092V35.8164L16.3409 42L21.9084 38.7793V24.3649L21.8902 21.0005L21.9084 18.3122V3.20961L21.4497 2.94511L20.9918 3.73909H20.0752V18.3059V18.2997L20.0574 20.9976L20.0752 24.3789V37.7218L16.34 39.883L7.46328 34.7579V29.7507L1.83324 26.5002V16.25L7.46328 12.9995V7.24158L16.3409 2.11601L20.534 4.53308L20.9918 3.73909H20.0752H20.9918Z" fill="white"/>
<path d="M6.10205 13.2703L9.21067 14.9886L10.0975 13.3843L6.98885 11.6665" fill="white"/>
<path d="M10.7946 14.8199C11.1628 14.1537 10.9212 13.3152 10.255 12.947C9.58877 12.5788 8.75021 12.8204 8.38201 13.4866C8.01382 14.1528 8.2554 14.9914 8.92162 15.3596C9.58783 15.7278 10.4264 15.4862 10.7946 14.8199Z" fill="white"/>
<path fill-rule="evenodd" clip-rule="evenodd" d="M8.21999 13.3932C7.80352 14.1468 8.07764 15.099 8.83123 15.5155C9.58482 15.932 10.537 15.6574 10.9535 14.9043C11.37 14.1507 11.0958 13.1985 10.3423 12.782C9.58867 12.3655 8.63646 12.6397 8.21999 13.3932ZM8.54355 13.5688C8.8624 12.9917 9.59098 12.782 10.1676 13.1008C10.7447 13.4197 10.9544 14.1478 10.6355 14.7249C10.3167 15.302 9.58858 15.5117 9.01148 15.1928C8.43439 14.874 8.22471 14.1459 8.54355 13.5688Z" fill="white"/>
<path d="M6.94441 31.105L10.0136 29.6348L9.22201 27.9819L6.15234 29.4521" fill="white"/>
<path d="M10.1405 30.088C10.827 29.7592 11.117 28.936 10.7881 28.2495C10.4593 27.563 9.63616 27.273 8.94963 27.6018C8.26309 27.9307 7.97312 28.7538 8.30197 29.4403C8.63081 30.1269 9.45394 30.4169 10.1405 30.088Z" fill="white"/>
<path fill-rule="evenodd" clip-rule="evenodd" d="M8.13739 29.5156C8.50914 30.2923 9.44355 30.6213 10.2202 30.2495C10.9969 29.8773 11.3263 28.9429 10.9541 28.1667C10.5824 27.39 9.64794 27.0611 8.87126 27.4328C8.09459 27.8045 7.76565 28.739 8.13739 29.5156ZM8.46644 29.3555C8.18126 28.7616 8.43326 28.0464 9.02767 27.7617C9.62207 27.477 10.3372 27.729 10.6214 28.3225C10.9066 28.9169 10.6546 29.632 10.0602 29.9167C9.46626 30.2019 8.75114 29.9499 8.46644 29.3555Z" fill="white"/>
<path d="M12.8552 9.96945L14.3259 11.1034V15.7322L10.3223 18.422V25.1317L14.3259 26.9461V31.7197L12.6768 33.3004L13.945 34.6234L16.1591 32.5016V25.7641L12.155 23.9501V19.3987L16.1591 16.709V10.2017L13.9743 8.51758L12.8552 9.96945Z" fill="white"/>
<path d="M14.5681 10.1343C15.0328 9.53138 14.9208 8.66592 14.318 8.2012C13.7151 7.73648 12.8496 7.84848 12.3849 8.45136C11.9202 9.05424 12.0322 9.9197 12.6351 10.3844C13.2379 10.8491 14.1034 10.7371 14.5681 10.1343Z" fill="white"/>
<path fill-rule="evenodd" clip-rule="evenodd" d="M14.7101 10.2448C14.1845 10.9267 13.202 11.0537 12.5201 10.528C11.8381 10.0019 11.7112 9.01988 12.2368 8.33794C12.7625 7.65601 13.745 7.52905 14.4269 8.05468C15.1088 8.58032 15.2358 9.56283 14.7101 10.2448ZM14.4234 10.0192C14.8259 9.49738 14.7283 8.74572 14.2065 8.34319C13.6843 7.94067 12.9326 8.03781 12.5305 8.56009C12.128 9.08187 12.2256 9.83354 12.7474 10.2361C13.2692 10.6386 14.0209 10.541 14.4234 10.0192Z" fill="white"/>
<path d="M14.3184 34.9018C14.868 34.3752 14.8866 33.5027 14.3599 32.9531C13.8332 32.4035 12.9607 32.3849 12.4111 32.9116C11.8616 33.4383 11.843 34.3108 12.3697 34.8604C12.8963 35.41 13.7688 35.4285 14.3184 34.9018Z" fill="white"/>
<path fill-rule="evenodd" clip-rule="evenodd" d="M14.4965 32.8282C13.9007 32.2064 12.9105 32.1852 12.2887 32.7811C11.6668 33.3769 11.6457 34.3671 12.2415 34.9889C12.8374 35.6108 13.8276 35.6319 14.4494 35.0361C15.0712 34.4402 15.0924 33.45 14.4965 32.8282ZM14.2338 33.0799C14.6898 33.5555 14.6734 34.3134 14.1978 34.7693C13.7217 35.2252 12.9642 35.2094 12.5083 34.7332C12.0524 34.2576 12.0683 33.4997 12.5444 33.0438C13.02 32.5879 13.7779 32.6043 14.2338 33.0799Z" fill="white"/>
<path d="M0.916016 22.5774H4.43629V20.7446H0.916016" fill="white"/>
<path d="M4.35876 23.0413C5.11997 23.0413 5.73706 22.4242 5.73706 21.663C5.73706 20.9018 5.11997 20.2847 4.35876 20.2847C3.59755 20.2847 2.98047 20.9018 2.98047 21.663C2.98047 22.4242 3.59755 23.0413 4.35876 23.0413Z" fill="white"/>
<path fill-rule="evenodd" clip-rule="evenodd" d="M2.79834 21.6636C2.79834 22.5244 3.49903 23.2251 4.35986 23.2251C5.22118 23.2251 5.92138 22.5244 5.92138 21.6636C5.92138 20.8027 5.2207 20.1021 4.35986 20.1021C3.49903 20.1021 2.79834 20.8027 2.79834 21.6636ZM3.16683 21.6619C3.16683 21.0025 3.70305 20.4668 4.3619 20.4668C5.02123 20.4668 5.55696 21.0025 5.55696 21.6619C5.55696 22.3212 5.02075 22.8569 4.3619 22.8569C3.70257 22.8569 3.16683 22.3207 3.16683 21.6619Z" fill="white"/>
<path d="M17.4136 22.5774H20.9339V20.7446H17.4136" fill="white"/>
<path d="M17.493 23.0413C18.2543 23.0413 18.8713 22.4242 18.8713 21.663C18.8713 20.9018 18.2543 20.2847 17.493 20.2847C16.7318 20.2847 16.1147 20.9018 16.1147 21.663C16.1147 22.4242 16.7318 23.0413 17.493 23.0413Z" fill="white"/>
<path fill-rule="evenodd" clip-rule="evenodd" d="M19.0552 21.6636C19.0552 22.5244 18.3545 23.2251 17.4937 23.2251C16.6323 23.2251 15.9321 22.5244 15.9321 21.6636C15.9321 20.8027 16.6328 20.1021 17.4937 20.1021C18.3545 20.1021 19.0552 20.8027 19.0552 21.6636ZM18.6921 21.6619C18.6921 21.0025 18.1558 20.4668 17.497 20.4668C16.8377 20.4668 16.3019 21.0025 16.3019 21.6619C16.3019 22.3212 16.8381 22.8569 17.497 22.8569C18.1563 22.8569 18.6921 22.3207 18.6921 21.6619Z" fill="white"/>
<path d="M20.9913 3.73909L21.4492 4.53308L25.6422 2.11601L34.5199 7.24158V12.9995L40.1499 16.25V26.5002L34.5199 29.7507V34.7579L25.6432 39.883L21.9079 37.7218V24.3741L21.9262 20.9966L21.9079 18.2997V18.3059V3.73909H20.9913L21.4492 4.53308L20.9913 3.73909H20.0747V18.3136L20.093 21.0014L20.0747 24.3693V38.7793L25.6422 42L36.3526 35.8164V30.8092L41.9832 27.5587V15.192L36.3526 11.9411V6.18309L25.6432 0L20.0747 3.20961V3.73909H20.9913Z" fill="white"/>
<path d="M34.9919 11.6665L31.8828 13.3843L32.7696 14.9886L35.8782 13.2703" fill="white"/>
<path d="M33.0597 15.3587C33.7259 14.9905 33.9675 14.1519 33.5993 13.4857C33.2311 12.8195 32.3925 12.5779 31.7263 12.9461C31.0601 13.3143 30.8185 14.1529 31.1867 14.8191C31.5549 15.4853 32.3935 15.7269 33.0597 15.3587Z" fill="white"/>
<path fill-rule="evenodd" clip-rule="evenodd" d="M33.7626 13.3932C33.3461 12.6397 32.3939 12.3655 31.6403 12.782C30.8867 13.1985 30.6126 14.1502 31.0291 14.9043C31.4455 15.6579 32.3977 15.932 33.1513 15.5155C33.9049 15.099 34.179 14.1468 33.7626 13.3932ZM33.4453 13.5688C33.7641 14.1459 33.5539 14.874 32.9773 15.1928C32.4007 15.5117 31.6721 15.302 31.3533 14.7249C31.0344 14.1478 31.2441 13.4197 31.8212 13.1008C32.3983 12.782 33.1264 12.9917 33.4453 13.5688Z" fill="white"/>
<path d="M35.8305 29.4521L32.7608 27.9819L31.9692 29.6348L35.0384 31.105" fill="white"/>
<path d="M33.6792 29.438C34.0081 28.7515 33.7181 27.9283 33.0316 27.5995C32.3451 27.2706 31.5219 27.5606 31.1931 28.2472C30.8642 28.9337 31.1542 29.7568 31.8407 30.0857C32.5273 30.4145 33.3504 30.1245 33.6792 29.438Z" fill="white"/>
<path fill-rule="evenodd" clip-rule="evenodd" d="M33.8452 29.5156C34.217 28.7394 33.888 27.8045 33.1113 27.4328C32.3351 27.0611 31.4007 27.39 31.0285 28.1667C30.6568 28.9429 30.9857 29.8778 31.7624 30.2495C32.5386 30.6213 33.4735 30.2923 33.8452 29.5156ZM33.5179 29.3555C33.2332 29.9495 32.5186 30.2015 31.9242 29.9168C31.3298 29.6321 31.0778 28.9174 31.3625 28.323C31.6476 27.7286 32.3623 27.4771 32.9567 27.7618C33.5506 28.0465 33.8026 28.7611 33.5179 29.3555Z" fill="white"/>
<path d="M28.011 8.51758L25.8262 10.2017V16.709L29.8302 19.3987V23.9501L25.8262 25.7641V32.5016L28.0403 34.6234L29.3089 33.3004L27.6594 31.7197V26.9461L31.663 25.1317V18.422L27.6594 15.7322V11.1034L29.13 9.96945L28.0114 8.51758H28.011Z" fill="white"/>
<path d="M29.3482 10.3833C29.9511 9.91855 30.0631 9.05309 29.5984 8.45022C29.1337 7.84734 28.2682 7.73534 27.6653 8.20005C27.0625 8.66477 26.9505 9.53023 27.4152 10.1331C27.8799 10.736 28.7454 10.848 29.3482 10.3833Z" fill="white"/>
<path fill-rule="evenodd" clip-rule="evenodd" d="M27.2715 10.2438C26.7458 9.56185 26.8728 8.57934 27.5547 8.05371C28.2367 7.52807 29.2192 7.65503 29.7448 8.33697C30.2705 9.0189 30.1435 10.0014 29.4616 10.527C28.7796 11.0527 27.7971 10.9257 27.2715 10.2438ZM27.56 10.0185C27.9625 10.5402 28.7142 10.6379 29.236 10.2353C29.7583 9.83283 29.8554 9.08116 29.4529 8.55937C29.0504 8.03758 28.2987 7.93995 27.7769 8.34248C27.2551 8.745 27.1575 9.49667 27.56 10.0185Z" fill="white"/>
<path d="M29.6133 34.8599C30.14 34.3103 30.1214 33.4378 29.5718 32.9111C29.0223 32.3845 28.1498 32.403 27.6231 32.9526C27.0964 33.5022 27.115 34.3747 27.6646 34.9014C28.2142 35.4281 29.0867 35.4095 29.6133 34.8599Z" fill="white"/>
<path fill-rule="evenodd" clip-rule="evenodd" d="M27.4899 32.827C26.8945 33.4489 26.9152 34.4391 27.537 35.0349C28.1588 35.6303 29.149 35.6096 29.7449 34.9878C30.3402 34.3664 30.3196 33.3758 29.6977 32.7799C29.0759 32.1845 28.0857 32.2052 27.4899 32.827ZM27.753 33.0789C28.2089 32.6028 28.9668 32.5869 29.4424 33.0428C29.918 33.4987 29.9344 34.2567 29.4785 34.7323C29.0226 35.2084 28.2651 35.2243 27.789 34.7684C27.3129 34.3124 27.2971 33.5545 27.753 33.0789Z" fill="white"/>
<path d="M41.0672 20.7446H37.5474V22.5774H41.0672" fill="white"/>
<path d="M37.6268 23.0413C38.388 23.0413 39.0051 22.4242 39.0051 21.663C39.0051 20.9018 38.388 20.2847 37.6268 20.2847C36.8656 20.2847 36.2485 20.9018 36.2485 21.663C36.2485 22.4242 36.8656 23.0413 37.6268 23.0413Z" fill="white"/>
<path fill-rule="evenodd" clip-rule="evenodd" d="M39.1851 21.6636C39.1851 20.8027 38.4844 20.1021 37.6235 20.1021C36.7627 20.1021 36.062 20.8023 36.062 21.6636C36.062 22.5244 36.7627 23.2251 37.6235 23.2251C38.4844 23.2251 39.1851 22.5244 39.1851 21.6636ZM38.8161 21.6619C38.8161 22.3212 38.2799 22.8569 37.621 22.8569C36.9617 22.8569 36.4259 22.3212 36.4259 21.6619C36.4259 21.0025 36.9622 20.4668 37.621 20.4668C38.2803 20.4668 38.8161 21.003 38.8161 21.6619Z" fill="white"/>
<path d="M24.5706 20.7446H21.0503V22.5774H24.5706" fill="white"/>
<path d="M24.493 23.0413C25.2543 23.0413 25.8713 22.4242 25.8713 21.663C25.8713 20.9018 25.2543 20.2847 24.493 20.2847C23.7318 20.2847 23.1147 20.9018 23.1147 21.663C23.1147 22.4242 23.7318 23.0413 24.493 23.0413Z" fill="white"/>
<path fill-rule="evenodd" clip-rule="evenodd" d="M22.9277 21.6636C22.9277 20.8027 23.6284 20.1021 24.4893 20.1021C25.3506 20.1021 26.0508 20.8023 26.0508 21.6636C26.0508 22.5244 25.3501 23.2251 24.4893 23.2251C23.6284 23.2251 22.9277 22.5244 22.9277 21.6636ZM23.2923 21.6619C23.2923 22.3212 23.8285 22.8569 24.4874 22.8569C25.1467 22.8569 25.6825 22.3212 25.6825 21.6619C25.6825 21.0025 25.1467 20.4668 24.4874 20.4668C23.8281 20.4668 23.2923 21.003 23.2923 21.6619Z" fill="white"/>
</svg>
