<svg width="971" height="934" viewBox="0 0 971 934" fill="none" xmlns="http://www.w3.org/2000/svg">
<g opacity="0.02">
<path d="M38.1715 392.405L0 430.745L496.229 933.002L706.173 718.297L339.726 365.567L366.446 338.729L328.275 300.389L263.383 365.567L618.378 722.131L492.412 852.487L38.1715 392.405Z" fill="#2998FA"/>
<path d="M933.034 498.762L971 460.422L473.642 -38.0001L264.827 176.705L633.1 529.435L602.727 556.273L640.693 594.613L705.236 533.269L352.15 172.871L477.438 42.5143L933.034 498.762Z" fill="white"/>
<path d="M426.64 188.875L468.447 227.591L479.848 215.976L840.904 579.903L882.71 537.316L479.848 138.545L426.64 188.875Z" fill="#2998FA"/>
<path d="M529.647 703.189L492.244 665.141L477.283 680.36L129.433 315.099L88.2896 356.952L477.283 756.456L529.647 703.189Z" fill="white"/>
</g>
</svg>
