<svg width="18" height="15" viewBox="0 0 18 15" fill="none" xmlns="http://www.w3.org/2000/svg">
<path d="M1.098 5.244H4.518V15H1.098V5.244ZM2.808 4.164C2.184 4.164 1.68 3.99 1.296 3.642C0.912 3.294 0.72 2.862 0.72 2.346C0.72 1.83 0.912 1.398 1.296 1.05C1.68 0.702 2.184 0.528 2.808 0.528C3.432 0.528 3.936 0.696 4.32 1.032C4.704 1.356 4.896 1.776 4.896 2.292C4.896 2.832 4.704 3.282 4.32 3.642C3.936 3.99 3.432 4.164 2.808 4.164ZM13.0946 5.082C14.3066 5.082 15.2786 5.442 16.0106 6.162C16.7546 6.882 17.1266 7.968 17.1266 9.42V15H13.7066V9.978C13.7066 8.646 13.1726 7.98 12.1046 7.98C11.5166 7.98 11.0426 8.172 10.6826 8.556C10.3346 8.94 10.1606 9.516 10.1606 10.284V15H6.74058V5.244H9.99858V6.306C10.3826 5.91 10.8386 5.61 11.3666 5.406C11.8946 5.19 12.4706 5.082 13.0946 5.082Z" fill="white"/>
</svg>
