<svg width="168" height="63" viewBox="0 0 168 63" fill="none" xmlns="http://www.w3.org/2000/svg">
<path d="M87.1498 28.1743C87.1498 28.6397 87.0933 29.0597 86.9802 29.4344C86.8728 29.8031 86.7287 30.1295 86.5478 30.4135C86.3669 30.6976 86.155 30.9393 85.9119 31.1388C85.6689 31.3382 85.4173 31.5014 85.1573 31.6283C84.8973 31.7552 84.6316 31.8489 84.3603 31.9093C84.0947 31.9698 83.8431 32 83.6057 32H75.1017V29.643H83.6057C84.0297 29.643 84.3575 29.51 84.5893 29.2441C84.8267 28.9781 84.9454 28.6216 84.9454 28.1743C84.9454 27.9568 84.9143 27.7573 84.8521 27.576C84.7899 27.3947 84.6995 27.2376 84.5808 27.1046C84.4677 26.9716 84.3264 26.8689 84.1568 26.7964C83.9929 26.7238 83.8092 26.6876 83.6057 26.6876H78.5356C78.1795 26.6876 77.7951 26.6211 77.3825 26.4881C76.9699 26.3491 76.5855 26.1285 76.2294 25.8264C75.8789 25.5242 75.585 25.1283 75.3476 24.6388C75.1159 24.1492 75 23.5509 75 22.8438C75 22.1367 75.1159 21.5414 75.3476 21.0579C75.585 20.5683 75.8789 20.1725 76.2294 19.8703C76.5855 19.5621 76.9699 19.3415 77.3825 19.2085C77.7951 19.0695 78.1795 19 78.5356 19H86.0391V21.357H78.5356C78.1173 21.357 77.7894 21.493 77.552 21.765C77.3203 22.037 77.2044 22.3966 77.2044 22.8438C77.2044 23.2971 77.3203 23.6567 77.552 23.9226C77.7894 24.1825 78.1173 24.3124 78.5356 24.3124H83.6057H83.6227C83.8601 24.3185 84.1116 24.3547 84.3773 24.4212C84.643 24.4816 84.9058 24.5783 85.1658 24.7113C85.4315 24.8443 85.683 25.0135 85.9204 25.219C86.1578 25.4184 86.3669 25.6602 86.5478 25.9442C86.7343 26.2283 86.8813 26.5546 86.9887 26.9233C87.0961 27.292 87.1498 27.709 87.1498 28.1743Z" fill="white"/>
<path d="M106.693 21.357H101.834V32H99.6299V21.357H94.7632V19H106.693V21.357Z" fill="white"/>
<path d="M126.685 32H124.48V28.8089H116.731V32H114.526V25.5C114.526 24.5511 114.679 23.6778 114.984 22.8801C115.289 22.0823 115.713 21.3963 116.256 20.8222C116.799 20.248 117.44 19.8008 118.181 19.4805C118.921 19.1602 119.729 19 120.606 19H125.574C125.727 19 125.871 19.0302 126.006 19.0907C126.142 19.1511 126.261 19.2357 126.362 19.3445C126.464 19.4533 126.543 19.5802 126.6 19.7252C126.656 19.8703 126.685 20.0244 126.685 20.1876V32ZM116.731 26.4519H124.48V21.357H120.606C120.538 21.357 120.394 21.3691 120.173 21.3933C119.958 21.4114 119.707 21.4628 119.419 21.5474C119.136 21.632 118.836 21.762 118.52 21.9372C118.203 22.1125 117.912 22.3543 117.646 22.6625C117.381 22.9707 117.16 23.3575 116.985 23.8229C116.816 24.2822 116.731 24.8412 116.731 25.5V26.4519Z" fill="white"/>
<path d="M148.856 32H145.727L140.767 26.6876H139.216V24.3124H140.767L145.727 19H148.856L142.607 25.5L148.856 32ZM138.334 32H136.129V19H138.334V32Z" fill="white"/>
<path d="M167.008 26.6876H160.047V24.3124H167.008V26.6876ZM168 32H160.047C159.742 32 159.408 31.9426 159.047 31.8278C158.685 31.7129 158.349 31.5256 158.038 31.2657C157.732 30.9998 157.475 30.6583 157.266 30.2413C157.063 29.8182 156.961 29.3015 156.961 28.6911V20.1876C156.961 20.0244 156.989 19.8703 157.046 19.7252C157.102 19.5802 157.179 19.4533 157.275 19.3445C157.376 19.2357 157.495 19.1511 157.631 19.0907C157.766 19.0302 157.913 19 158.072 19H168V21.357H159.165V28.6911C159.165 28.9993 159.242 29.235 159.394 29.3982C159.547 29.5614 159.77 29.643 160.064 29.643H168V32Z" fill="white"/>
<path d="M84.1742 44.2641C84.1742 44.5818 84.1316 44.8686 84.0462 45.1245C83.9651 45.3762 83.8563 45.599 83.7197 45.793C83.5831 45.9869 83.4231 46.152 83.2395 46.2882C83.056 46.4243 82.8661 46.5358 82.6697 46.6224C82.4734 46.7091 82.2728 46.773 82.0679 46.8143C81.8673 46.8556 81.6774 46.8762 81.4982 46.8762H75.0768V45.2669H81.4982C81.8183 45.2669 82.0658 45.1761 82.2408 44.9945C82.4201 44.8129 82.5097 44.5695 82.5097 44.2641C82.5097 44.1155 82.4862 43.9794 82.4393 43.8556C82.3923 43.7318 82.324 43.6245 82.2344 43.5337C82.149 43.4429 82.0423 43.3728 81.9143 43.3232C81.7905 43.2737 81.6518 43.249 81.4982 43.249H77.6697C77.4008 43.249 77.1106 43.2036 76.799 43.1128C76.4874 43.0179 76.1972 42.8673 75.9283 42.6609C75.6637 42.4546 75.4417 42.1843 75.2625 41.8501C75.0875 41.5158 75 41.1073 75 40.6245C75 40.1417 75.0875 39.7352 75.2625 39.4051C75.4417 39.0708 75.6637 38.8006 75.9283 38.5942C76.1972 38.3838 76.4874 38.2331 76.799 38.1424C77.1106 38.0475 77.4008 38 77.6697 38H83.3356V39.6094H77.6697C77.3538 39.6094 77.1063 39.7022 76.927 39.8879C76.752 40.0736 76.6646 40.3191 76.6646 40.6245C76.6646 40.934 76.752 41.1795 76.927 41.3611C77.1063 41.5385 77.3538 41.6272 77.6697 41.6272H81.4982H81.511C81.6902 41.6314 81.8801 41.6561 82.0807 41.7015C82.2813 41.7428 82.4798 41.8088 82.6761 41.8996C82.8767 41.9904 83.0667 42.1059 83.2459 42.2462C83.4252 42.3824 83.5831 42.5475 83.7197 42.7414C83.8605 42.9354 83.9715 43.1582 84.0526 43.4099C84.1337 43.6616 84.1742 43.9464 84.1742 44.2641Z" fill="#9A9A9A"/>
<path d="M98.0876 43.249H92.8314V41.6272H98.0876V43.249ZM98.8366 46.8762H92.8314C92.601 46.8762 92.3491 46.837 92.076 46.7586C91.8028 46.6802 91.5489 46.5523 91.3141 46.3748C91.0837 46.1933 90.8895 45.9601 90.7315 45.6754C90.5779 45.3865 90.5011 45.0337 90.5011 44.6169V38.8109C90.5011 38.6994 90.5224 38.5942 90.5651 38.4952C90.6078 38.3961 90.6654 38.3095 90.7379 38.2352C90.8148 38.1609 90.9044 38.1032 91.0068 38.0619C91.1093 38.0206 91.2202 38 91.3397 38H98.8366V39.6094H92.1656V44.6169C92.1656 44.8274 92.2232 44.9883 92.3385 45.0997C92.4537 45.2111 92.6223 45.2669 92.8442 45.2669H98.8366V46.8762Z" fill="#9A9A9A"/>
<path d="M114.607 40.9835C114.607 41.3508 114.56 41.6788 114.466 41.9677C114.372 42.2565 114.244 42.5124 114.082 42.7352C113.924 42.9539 113.74 43.1417 113.531 43.2985C113.322 43.4553 113.102 43.5853 112.872 43.6884C112.645 43.7875 112.415 43.8597 112.18 43.9051C111.95 43.9505 111.732 43.9732 111.527 43.9732L115.004 46.8762H112.43L108.96 43.9732H107.763V42.3638H111.527C111.736 42.3473 111.926 42.3061 112.097 42.24C112.272 42.1699 112.421 42.077 112.545 41.9615C112.673 41.8459 112.771 41.7077 112.84 41.5468C112.908 41.3817 112.942 41.1939 112.942 40.9835V39.9684C112.942 39.8776 112.929 39.8095 112.904 39.7641C112.882 39.7146 112.852 39.6795 112.814 39.6589C112.78 39.6341 112.741 39.6197 112.699 39.6155C112.66 39.6114 112.624 39.6094 112.59 39.6094H107.097V46.8762H105.432V38.8109C105.432 38.6994 105.454 38.5942 105.496 38.4952C105.539 38.3961 105.597 38.3095 105.669 38.2352C105.746 38.1609 105.836 38.1032 105.938 38.0619C106.041 38.0206 106.152 38 106.271 38H112.59C112.961 38 113.275 38.066 113.531 38.1981C113.787 38.326 113.994 38.489 114.152 38.6871C114.314 38.881 114.429 39.0915 114.498 39.3184C114.57 39.5454 114.607 39.7579 114.607 39.956V40.9835Z" fill="#9A9A9A"/>
<path d="M130.396 38L126.049 46.5605C125.98 46.6926 125.878 46.7978 125.741 46.8762C125.609 46.9587 125.462 47 125.3 47C125.142 47 124.994 46.9587 124.858 46.8762C124.726 46.7978 124.623 46.6926 124.551 46.5605L120.21 38H122.073L125.3 44.3941L128.539 38H130.396Z" fill="#9A9A9A"/>
<path d="M137.997 46.8762H136.332V38H137.997V46.8762Z" fill="#9A9A9A"/>
<path d="M153.146 46.8762H147.14C146.987 46.8762 146.82 46.8597 146.641 46.8267C146.466 46.7895 146.291 46.7338 146.116 46.6596C145.945 46.5853 145.781 46.4904 145.623 46.3748C145.465 46.2552 145.324 46.1128 145.201 45.9477C145.081 45.7785 144.985 45.5846 144.912 45.3659C144.84 45.1431 144.804 44.8934 144.804 44.6169V40.2593C144.804 40.1107 144.821 39.9519 144.855 39.7827C144.893 39.6094 144.951 39.4402 145.028 39.2751C145.104 39.1059 145.205 38.945 145.329 38.7923C145.452 38.6396 145.6 38.5055 145.77 38.39C145.945 38.2703 146.146 38.1754 146.372 38.1052C146.598 38.0351 146.854 38 147.14 38H153.146V39.6094H147.14C146.923 39.6094 146.756 39.6651 146.641 39.7765C146.526 39.8879 146.468 40.053 146.468 40.2717V44.6169C146.468 44.8232 146.526 44.9842 146.641 45.0997C146.76 45.2111 146.927 45.2669 147.14 45.2669H153.146V46.8762Z" fill="#9A9A9A"/>
<path d="M167.251 43.249H161.995V41.6272H167.251V43.249ZM168 46.8762H161.995C161.764 46.8762 161.513 46.837 161.239 46.7586C160.966 46.6802 160.712 46.5523 160.478 46.3748C160.247 46.1933 160.053 45.9601 159.895 45.6754C159.741 45.3865 159.664 45.0337 159.664 44.6169V38.8109C159.664 38.6994 159.686 38.5942 159.728 38.4952C159.771 38.3961 159.829 38.3095 159.901 38.2352C159.978 38.1609 160.068 38.1032 160.17 38.0619C160.273 38.0206 160.384 38 160.503 38H168V39.6094H161.329V44.6169C161.329 44.8274 161.387 44.9883 161.502 45.0997C161.617 45.2111 161.786 45.2669 162.008 45.2669H168V46.8762Z" fill="#9A9A9A"/>
<path d="M3.12517 27.8155L0.658203 30.2934L32.7288 62.7536L46.2972 48.8775L22.6142 26.081L24.3411 24.3465L21.8742 21.8687L17.6803 26.081L40.6231 49.1253L32.4821 57.55L3.12517 27.8155Z" fill="#2998FA"/>
<path d="M60.9589 34.6901L63.4126 32.2122L31.269 -0.000134519L17.7736 13.876L41.5746 36.6724L39.6116 38.4069L42.0653 40.8848L46.2366 36.9202L23.4172 13.6282L31.5144 5.2034L60.9589 34.6901Z" fill="white"/>
<path d="M28.2315 14.6625L30.9334 17.1646L31.6703 16.414L55.0048 39.9341L57.7067 37.1817L31.6703 11.4097L28.2315 14.6625Z" fill="#2998FA"/>
<path d="M34.8885 47.9011L32.4712 45.4421L31.5042 46.4257L9.02319 22.8193L6.36414 25.5242L31.5042 51.3437L34.8885 47.9011Z" fill="white"/>
</svg>
