<svg width="138" height="142" viewBox="0 0 138 142" fill="none" xmlns="http://www.w3.org/2000/svg">
<mask id="mask0" mask-type="alpha" maskUnits="userSpaceOnUse" x="0" y="0" width="138" height="142">
<g opacity="0.15">
<path d="M98.1991 71C82.0733 71 69.001 84.7604 69.001 101.735C69.001 118.709 82.0733 132.47 98.1991 132.47C114.325 132.47 127.397 118.709 127.397 101.735C127.379 84.7686 114.317 71.0195 98.1991 71ZM98.1991 127.741C84.5543 127.741 73.493 116.098 73.493 101.735C73.493 87.372 84.5543 75.7284 98.1991 75.7284C111.844 75.7284 122.905 87.372 122.905 101.735C122.889 116.091 111.837 127.725 98.1991 127.741Z" fill="white" fill-opacity="0.2"/>
<path d="M104.938 85.1858H102.692V80.4574H98.2002V85.1858H95.9721L96.0081 80.4763L91.5161 80.4385L91.4801 85.1858H84.7241V89.9143H89.2161V113.557H84.7241V118.285H91.4801L91.5161 123.032L96.0081 122.994L95.9721 118.285H98.2002V123.013H102.692V118.285H104.938C108.66 118.285 111.676 115.11 111.676 111.192V106.464C111.67 104.713 111.046 103.028 109.924 101.735C111.046 100.443 111.67 98.7574 111.676 97.007V92.2785C111.676 88.3613 108.66 85.1858 104.938 85.1858ZM107.184 111.192C107.184 112.498 106.179 113.557 104.938 113.557H93.7082V104.1H104.938C106.179 104.1 107.184 105.158 107.184 106.464V111.192ZM107.184 97.007C107.184 98.3126 106.179 99.3712 104.938 99.3712H93.7082V89.9143H104.938C106.179 89.9143 107.184 90.9729 107.184 92.2785V97.007Z" fill="white" fill-opacity="0.2"/>
<path d="M98.1973 61.543C77.1098 61.543 60.0151 79.5374 60.0151 101.735C60.0151 123.932 77.1098 141.927 98.1973 141.927C119.285 141.927 136.38 123.932 136.38 101.735C136.356 79.5477 119.275 61.5678 98.1973 61.543ZM98.1973 137.198C79.5908 137.198 64.5072 121.321 64.5072 101.735C64.5072 82.1489 79.5908 66.2714 98.1973 66.2714C116.804 66.2714 131.888 82.1489 131.888 101.735C131.866 121.311 116.795 137.176 98.1973 137.198Z" fill="white" fill-opacity="0.2"/>
<path d="M39.8002 71.0001C55.926 71.0001 68.9984 57.2397 68.9984 40.2652C68.9984 23.2906 55.926 9.53027 39.8002 9.53027C23.6744 9.53027 10.6021 23.2906 10.6021 40.2652C10.6206 57.2314 23.6823 70.9806 39.8002 71.0001ZM39.8002 14.2587C53.445 14.2587 64.5063 25.9022 64.5063 40.2652C64.5063 54.6281 53.445 66.2716 39.8002 66.2716C26.1554 66.2716 15.0941 54.6281 15.0941 40.2652C15.1101 25.9093 26.1621 14.2756 39.8002 14.2587Z" fill="white" fill-opacity="0.2"/>
<path d="M39.8028 80.4568C60.8903 80.4568 77.985 62.4624 77.985 40.265C77.985 18.0676 60.8903 0.0732422 39.8028 0.0732422C18.7153 0.0732422 1.62061 18.0676 1.62061 40.265C1.64419 62.4521 18.7251 80.432 39.8028 80.4568ZM39.8028 4.80169C58.4093 4.80169 73.493 20.6792 73.493 40.265C73.493 59.8508 58.4093 75.7284 39.8028 75.7284C21.1963 75.7284 6.11263 59.8508 6.11263 40.265C6.13369 20.6884 21.205 4.82385 39.8028 4.80169Z" fill="white" fill-opacity="0.2"/>
<path d="M39.8038 52.0864C36.1518 52.0864 33.0658 49.9208 33.0658 47.358C33.0658 46.0523 32.0601 44.9938 30.8197 44.9938C29.5794 44.9938 28.5737 46.0523 28.5737 47.358C28.5737 51.9257 32.4391 55.7439 37.5578 56.6234V61.5433H42.0498V56.6234C47.1685 55.7439 51.0338 51.9257 51.0338 47.358C51.0338 42.1425 45.996 37.9011 39.8038 37.9011C36.1518 37.9011 33.0658 35.7355 33.0658 33.1726C33.0658 30.6098 36.1518 28.4442 39.8038 28.4442C43.4558 28.4442 46.5418 30.6098 46.5418 33.1726C46.5418 34.4783 47.5475 35.5369 48.7878 35.5369C50.0282 35.5369 51.0338 34.4783 51.0338 33.1726C51.0338 28.605 47.1685 24.7867 42.0498 23.9073V18.9873H37.5578V23.9073C32.4391 24.7867 28.5737 28.605 28.5737 33.1726C28.5737 38.3881 33.6115 42.6295 39.8038 42.6295C43.4558 42.6295 46.5418 44.7952 46.5418 47.358C46.5418 49.9208 43.4558 52.0864 39.8038 52.0864Z" fill="white" fill-opacity="0.2"/>
<path d="M116.166 54.3159L137.999 37.9011L116.166 21.4863V30.8085H82.4756V35.5369H120.658V30.6737L130.268 37.9011L120.658 45.1286V40.2654H82.4756V44.9938H116.166V54.3159Z" fill="white" fill-opacity="0.2"/>
<path d="M86.9676 23.7153H82.4756V28.4438H86.9676V23.7153Z" fill="white" fill-opacity="0.2"/>
<path d="M95.9535 23.7153H91.4614V28.4438H95.9535V23.7153Z" fill="white" fill-opacity="0.2"/>
<path d="M104.934 23.7153H100.442V28.4438H104.934V23.7153Z" fill="white" fill-opacity="0.2"/>
<path d="M113.92 23.7153H109.428V28.4438H113.92V23.7153Z" fill="white" fill-opacity="0.2"/>
<path d="M21.8335 85.3203L0 101.735L21.8335 118.15V108.828H55.5237V104.099H17.3415V108.963L7.73077 101.735L17.3415 94.5077V99.3709H55.5237V94.6424H21.8335V85.3203Z" fill="white" fill-opacity="0.2"/>
<path d="M55.5262 111.192H51.0342V115.92H55.5262V111.192Z" fill="white" fill-opacity="0.2"/>
<path d="M46.5399 111.192H42.0479V115.92H46.5399V111.192Z" fill="white" fill-opacity="0.2"/>
<path d="M37.554 111.192H33.062V115.92H37.554V111.192Z" fill="white" fill-opacity="0.2"/>
<path d="M28.5731 111.192H24.0811V115.92H28.5731V111.192Z" fill="white" fill-opacity="0.2"/>
</g>
</mask>
<g mask="url(#mask0)">
<rect x="-61" y="-12" width="199" height="128" fill="#C4C4C4"/>
</g>
</svg>
