<svg width="214" height="152" viewBox="0 0 214 152" fill="none" xmlns="http://www.w3.org/2000/svg">
<mask id="mask0" mask-type="alpha" maskUnits="userSpaceOnUse" x="0" y="0" width="204" height="152">
<path fill-rule="evenodd" clip-rule="evenodd" d="M0 4C0 1.79086 1.79086 0 4 0H200C202.209 0 204 1.79086 204 4V148C204 150.209 202.209 152 200 152H4C1.79086 152 0 150.209 0 148V4Z" fill="#414BFF"/>
</mask>
<g mask="url(#mask0)">
<g opacity="0.15">
<path d="M112.185 59.0011C111.468 59.0218 110.787 59.3145 110.28 59.8186L101.851 68.2117C100.741 69.2916 100.72 71.0631 101.805 72.1682C102.889 73.2733 104.669 73.294 105.778 72.2141C105.794 72.199 105.81 72.1833 105.825 72.1677L109.457 68.5514V92.5714H103.837C102.286 92.5495 101.01 93.7844 100.988 95.3293C100.966 96.8742 102.206 98.1449 103.758 98.1668C103.784 98.1673 103.81 98.1673 103.837 98.1668H111.807C112.107 98.216 112.413 98.216 112.714 98.1668H117.886C119.437 98.1886 120.714 96.9537 120.735 95.4088C120.757 93.8639 119.517 92.5932 117.966 92.5714C117.939 92.5708 117.913 92.5708 117.886 92.5714H115.077V61.7966C115.076 60.2511 113.817 58.9994 112.265 59C112.239 59 112.212 59.0006 112.185 59.0011ZM143.173 59.0011C142.456 59.0218 141.775 59.3145 141.268 59.8186L132.839 68.2117C131.719 69.2821 131.683 71.0531 132.758 72.1677C133.833 73.2823 135.612 73.3187 136.731 72.2483C136.759 72.222 136.786 72.1951 136.812 72.1677L140.445 68.5502V92.5714H134.825C133.274 92.5495 131.998 93.7844 131.976 95.3293C131.954 96.8742 133.194 98.1449 134.746 98.1668C134.772 98.1673 134.798 98.1673 134.825 98.1668H142.795C143.096 98.216 143.404 98.216 143.705 98.1668H148.874C150.425 98.1886 151.702 96.9537 151.723 95.4088C151.745 93.8639 150.505 92.5932 148.954 92.5714C148.927 92.5708 148.901 92.5708 148.874 92.5714H146.065V61.7966C146.064 60.2511 144.805 58.9994 143.253 59C143.227 59 143.2 59.0006 143.173 59.0011ZM79.8744 59.0201C74.4746 59.0201 70.0402 63.4355 70.0402 68.8121V88.3961C70.0402 93.7727 74.4746 98.188 79.8744 98.188C85.2743 98.188 89.7087 93.7727 89.7087 88.3961V68.8121C89.7087 63.4355 85.2743 59.0201 79.8744 59.0201ZM172.838 59.0201C167.438 59.0201 163.004 63.4355 163.004 68.8121V88.3961C163.004 93.7727 167.438 98.188 172.838 98.188C178.238 98.188 182.672 93.7727 182.672 88.3961V68.8121C182.672 63.4355 178.237 59.0201 172.838 59.0201ZM203.826 59.0201C198.426 59.0201 193.992 63.4355 193.992 68.8121V88.3961C193.992 93.7727 198.426 98.188 203.826 98.188C209.226 98.188 213.66 93.7727 213.66 88.3961V68.8121C213.66 63.4355 209.225 59.0201 203.826 59.0201ZM79.8744 64.6156C82.2577 64.6156 84.0891 66.4391 84.0891 68.8121V88.3961C84.0891 90.7691 82.2577 92.5926 79.8744 92.5926C77.4912 92.5926 75.6598 90.7691 75.6598 88.3961V68.8121C75.6598 66.4385 77.4912 64.6156 79.8744 64.6156ZM172.838 64.6156C175.221 64.6156 177.053 66.4391 177.053 68.8121V88.3961C177.053 90.7691 175.221 92.5926 172.838 92.5926C170.455 92.5926 168.623 90.7691 168.623 88.3961V68.8121C168.623 66.4385 170.454 64.6156 172.838 64.6156ZM203.826 64.6156C206.209 64.6156 208.041 66.4391 208.041 68.8121V88.3961C208.041 90.7691 206.209 92.5926 203.826 92.5926C201.443 92.5926 199.611 90.7691 199.611 88.3961V68.8121C199.611 66.4385 201.442 64.6156 203.826 64.6156ZM81.1973 109.4C80.4808 109.42 79.7997 109.713 79.2928 110.217L70.8635 118.61C69.7665 119.703 69.7682 121.476 70.8663 122.567C71.9632 123.658 73.7407 123.658 74.8376 122.567L78.4695 118.951V142.971H72.85C71.2984 142.949 70.0222 144.184 70.0003 145.729C69.9784 147.274 71.2186 148.544 72.7702 148.566C72.7966 148.567 72.823 148.567 72.8494 148.566H80.8191C81.1209 148.616 81.4282 148.616 81.73 148.566H86.8983C88.4499 148.588 89.7261 147.353 89.748 145.808C89.7699 144.263 88.5297 142.993 86.9781 142.971C86.9517 142.97 86.9253 142.97 86.8989 142.971H84.0891V112.196C84.0891 110.651 82.8309 109.398 81.2788 109.398C81.2518 109.398 81.2243 109.398 81.1973 109.4ZM143.173 109.4C142.456 109.42 141.775 109.713 141.268 110.217L132.839 118.61C131.728 119.69 131.708 121.461 132.792 122.567C133.876 123.672 135.655 123.693 136.765 122.614C136.781 122.599 136.797 122.583 136.812 122.567L140.445 118.95V142.971H134.825C133.274 142.949 131.998 144.184 131.976 145.729C131.954 147.274 133.194 148.544 134.746 148.566C134.772 148.567 134.798 148.567 134.825 148.566H142.795C143.096 148.616 143.404 148.616 143.705 148.566H148.874C150.425 148.588 151.702 147.353 151.723 145.808C151.745 144.263 150.505 142.993 148.954 142.971C148.927 142.97 148.901 142.97 148.874 142.971H146.065V112.196C146.065 110.651 144.806 109.398 143.254 109.398C143.227 109.398 143.2 109.398 143.173 109.4ZM174.16 109.4C173.444 109.42 172.763 109.713 172.256 110.217L163.826 118.61C162.716 119.69 162.695 121.461 163.779 122.567C164.864 123.672 166.642 123.693 167.753 122.614C167.768 122.599 167.784 122.583 167.799 122.567L171.432 118.95V142.971H165.813C164.261 142.949 162.985 144.184 162.963 145.729C162.941 147.274 164.181 148.544 165.733 148.566C165.759 148.567 165.786 148.567 165.812 148.566H173.782C174.084 148.616 174.391 148.616 174.693 148.566H179.861C181.413 148.588 182.689 147.353 182.711 145.808C182.733 144.263 181.493 142.993 179.941 142.971C179.915 142.97 179.888 142.97 179.862 142.971H177.052V112.196C177.052 110.651 175.794 109.398 174.242 109.398C174.215 109.398 174.188 109.398 174.16 109.4ZM110.862 109.418C105.463 109.418 101.028 113.833 101.028 119.21V138.794C101.028 144.171 105.463 148.586 110.862 148.586C116.262 148.586 120.697 144.171 120.697 138.794V119.21C120.697 113.833 116.262 109.418 110.862 109.418ZM203.826 109.418C198.426 109.418 193.992 113.833 193.992 119.21V138.794C193.992 144.171 198.426 148.586 203.826 148.586C209.226 148.586 213.66 144.171 213.66 138.794V119.21C213.66 113.833 209.225 109.418 203.826 109.418ZM110.862 115.013C113.246 115.013 115.077 116.837 115.077 119.21V138.794C115.077 141.167 113.246 142.99 110.862 142.99C108.479 142.99 106.648 141.167 106.648 138.794V119.21C106.648 116.836 108.479 115.013 110.862 115.013ZM203.826 115.013C206.209 115.013 208.041 116.837 208.041 119.21V138.794C208.041 141.167 206.209 142.99 203.826 142.99C201.443 142.99 199.611 141.167 199.611 138.794V119.21C199.611 116.836 201.442 115.013 203.826 115.013Z" fill="white" fill-opacity="0.27"/>
</g>
</g>
</svg>
