<svg width="22" height="22" viewBox="0 0 22 22" fill="none" xmlns="http://www.w3.org/2000/svg">
<g clip-path="url(#clip0)">
<path d="M8.2075 20.025C7.25615 20.025 6.27694 19.948 5.29185 19.7936C3.55683 19.5213 1.80048 18.6138 1.30349 18.342L0 17.6293L1.41125 17.1652C2.95392 16.658 3.89235 16.3433 5.05401 15.8505C3.89084 15.2872 2.99437 14.2739 2.56284 12.964L2.23453 11.9674L2.50376 12.0085C2.24847 11.7512 2.04688 11.49 1.89062 11.2525C1.33488 10.4084 1.04065 9.37699 1.10325 8.49311L1.16502 7.62316L1.68585 7.82491C1.46614 7.40999 1.30735 6.96688 1.21403 6.50245C0.986599 5.36982 1.17694 4.16652 1.75013 3.11429L2.20382 2.28144L2.81058 3.01023C4.72957 5.31544 7.16014 6.68288 10.0449 7.0832C9.92708 6.27099 10.0154 5.48714 10.3076 4.78454C10.6478 3.96645 11.2531 3.27274 12.0574 2.77826C12.9507 2.22924 14.0339 1.9632 15.1077 2.02917C16.2468 2.09916 17.2811 2.52599 18.1025 3.26435C18.5037 3.16012 18.7993 3.04883 19.1987 2.89844C19.4391 2.80797 19.7117 2.70525 20.0527 2.58776L21.3096 2.15471L20.49 4.4955C20.544 4.49097 20.5997 4.48711 20.658 4.48459L22.0001 4.42383L21.2068 5.50796C21.1614 5.57006 21.1498 5.58768 21.1337 5.61202C21.0697 5.70836 20.9902 5.82821 19.9013 7.28209C19.6288 7.64615 19.4926 8.12032 19.518 8.61748C19.6145 10.5068 19.3827 12.2161 18.8286 13.6979C18.3046 15.0997 17.4926 16.3025 16.4153 17.2728C15.0823 18.4733 13.3825 19.2952 11.363 19.7155C10.3724 19.9216 9.30857 20.025 8.2075 20.025Z" fill="white"/>
</g>
<defs>
<clipPath id="clip0">
<rect width="22" height="22" fill="white"/>
</clipPath>
</defs>
</svg>
